<svg id="Layer_1" data-name="Layer 1" xmlns="http://www.w3.org/2000/svg" viewBox="0 0 104.68 85.86"><defs><style>.cls-1,.cls-4,.cls-5,.cls-6{fill:none;stroke-miterlimit:10;}.cls-1,.cls-4{stroke:#231f20;}.cls-1,.cls-5,.cls-6{stroke-width:0.25px;}.cls-10,.cls-11,.cls-12,.cls-14,.cls-2,.cls-3,.cls-7,.cls-9{fill:#231f20;}.cls-3{font-size:5.66px;}.cls-10,.cls-3,.cls-7,.cls-9{font-family:MyriadPro-Regular, Myriad Pro;}.cls-4{stroke-width:0.5px;}.cls-5{stroke:#39b54a;}.cls-6{stroke:#f7941d;}.cls-10,.cls-11,.cls-12,.cls-7,.cls-9{font-size:9px;}.cls-10,.cls-8{letter-spacing:-0.09em;}.cls-9{letter-spacing:0em;}.cls-11,.cls-13{font-family:Arial-BoldMT, Arial;font-weight:700;}.cls-12,.cls-14{font-family:ArialMT, Arial;}.cls-14{font-size:7px;}</style></defs><title>ray_tracing_illustration</title><line class="cls-1" x1="1.55" y1="22.91" x2="13" y2="22.91"/><polygon class="cls-2" points="12.5 23.64 15.21 22.91 12.5 22.18 12.5 23.64"/><line class="cls-1" x1="1.55" y1="22.91" x2="1.55" y2="9.75"/><polygon class="cls-2" points="2.28 10.24 1.55 7.53 0.83 10.24 2.28 10.24"/><circle class="cls-1" cx="1.55" cy="22.72" r="1.43"/><line class="cls-1" x1="0.6" y1="23.67" x2="2.51" y2="21.76"/><line class="cls-1" x1="0.57" y1="21.73" x2="2.57" y2="23.73"/><text class="cls-3" transform="translate(15.21 24.79)">z</text><text class="cls-3" transform="translate(0.13 6.13)">y</text><text class="cls-3" transform="translate(2.01 27.28)">x</text><path class="cls-4" d="M72.56,92.1C58.12,64,66.2,31.13,90.63,18.57" transform="translate(-2.76 -6.35)"/><line class="cls-1" x1="26.11" y1="32.2" x2="64.81" y2="34.96"/><polygon class="cls-2" points="64.26 35.65 67.02 35.12 64.36 34.2 64.26 35.65"/><line class="cls-5" x1="77.66" y1="8.37" x2="49.09" y2="77.63"/><line class="cls-6" x1="97.35" y1="47.36" x2="27.93" y2="19.18"/><line class="cls-1" x1="67.25" y1="35.05" x2="102.46" y2="34.57"/><polygon class="cls-2" points="101.98 35.3 104.68 34.54 101.96 33.85 101.98 35.3"/><text class="cls-7" transform="translate(37.37 32.27)">θ</text><text class="cls-7" transform="translate(82.88 41.61)">θ<tspan class="cls-8" x="4.81" y="0">’</tspan></text><text class="cls-7" transform="translate(52.81 19.79)">n</text><text class="cls-9" transform="translate(57.8 22.79) scale(0.58)">r</text><text class="cls-7" transform="translate(87.32 29.27)">n</text><text class="cls-9" transform="translate(92.31 32.27) scale(0.58)">r</text><text class="cls-10" transform="translate(94.03 29.27)">’</text><text class="cls-11" transform="translate(21.7 19.79)">n</text><text class="cls-12" transform="translate(73.02 7.72)">d<tspan class="cls-13" x="5.01" y="0">S</tspan></text><text class="cls-14" transform="translate(14.94 34.69)">ray</text><text class="cls-14" transform="translate(63.37 61.16)">surface</text></svg>